<svg xmlns="http://www.w3.org/2000/svg" xmlns:xlink="http://www.w3.org/1999/xlink" width="125" height="125" viewBox="0 0 125 125">
  <defs>
    <filter id="Rectangle_24" x="0" y="0" width="125" height="125" filterUnits="userSpaceOnUse">
      <feOffset dy="15" input="SourceAlpha"/>
      <feGaussianBlur stdDeviation="7.5" result="blur"/>
      <feFlood flood-color="#aace50" flood-opacity="0.302"/>
      <feComposite operator="in" in2="blur"/>
      <feComposite in="SourceGraphic"/>
    </filter>
  </defs>
  <g id="Group_679" data-name="Group 679" transform="translate(-205.5 -2776.5)">
    <g transform="matrix(1, 0, 0, 1, 205.5, 2776.5)" filter="url(#Rectangle_24)">
      <rect id="Rectangle_24-2" data-name="Rectangle 24" width="80" height="80" rx="20" transform="translate(22.5 7.5)" fill="#a9d046"/>
    </g>
    <path id="FontAwsome_comments_" data-name="FontAwsome (comments)" d="M39.541,58.33a10.236,10.236,0,0,0,3.271-7.3c0-5.947-5.687-10.861-13.1-11.738C27.372,35.011,21.871,32,15.456,32,6.914,32-.006,37.322-.006,43.894a10.262,10.262,0,0,0,3.271,7.3,19.464,19.464,0,0,1-2.8,4.081,1.721,1.721,0,0,0,1.249,2.9,17.087,17.087,0,0,0,9.307-2.884,21.185,21.185,0,0,0,2.111.364c2.334,4.267,7.813,7.27,14.221,7.27a19.677,19.677,0,0,0,4.445-.505A17.128,17.128,0,0,0,41.1,65.3a1.721,1.721,0,0,0,1.249-2.9A18.945,18.945,0,0,1,39.541,58.33Zm-29.2-6.861-1.271.825a15.125,15.125,0,0,1-3.2,1.591c.2-.349.4-.721.595-1.1l1.152-2.312L5.77,48.651a6.815,6.815,0,0,1-2.208-4.758c0-4.512,5.449-8.326,11.894-8.326s11.894,3.813,11.894,8.326S21.9,52.219,15.456,52.219a16.2,16.2,0,0,1-3.642-.416l-1.472-.335Zm26.694,4.319L35.2,57.6l1.152,2.312c.193.379.394.751.595,1.1a15.126,15.126,0,0,1-3.2-1.591L32.471,58.6l-1.479.342a16.2,16.2,0,0,1-3.642.416,13.832,13.832,0,0,1-9.76-3.695c7.53-.8,13.328-5.754,13.328-11.767,0-.253-.03-.5-.052-.743,4.787,1.078,8.378,4.222,8.378,7.88A6.815,6.815,0,0,1,37.035,55.788Z" transform="translate(247.007 2775)" fill="#163828"/>
  </g>
</svg>
