<svg xmlns="http://www.w3.org/2000/svg" xmlns:xlink="http://www.w3.org/1999/xlink" width="125" height="125" viewBox="0 0 125 125">
  <defs>
    <filter id="Rectangle_24" x="0" y="0" width="125" height="125" filterUnits="userSpaceOnUse">
      <feOffset dy="15" input="SourceAlpha"/>
      <feGaussianBlur stdDeviation="7.5" result="blur"/>
      <feFlood flood-color="#aace50" flood-opacity="0.302"/>
      <feComposite operator="in" in2="blur"/>
      <feComposite in="SourceGraphic"/>
    </filter>
  </defs>
  <g id="Group_679" data-name="Group 679" transform="translate(-205.5 -2776.5)">
    <g transform="matrix(1, 0, 0, 1, 205.5, 2776.5)" filter="url(#Rectangle_24)">
      <rect id="Rectangle_24-2" data-name="Rectangle 24" width="80" height="80" rx="20" transform="translate(22.5 7.5)" fill="#a9d046"/>
    </g>
    <path id="FontAwsome_file-alt_" data-name="FontAwsome (file-alt)" d="M24.979,21.51v2.428a1.044,1.044,0,0,1-1.041,1.041H9.367a1.044,1.044,0,0,1-1.041-1.041V21.51a1.044,1.044,0,0,1,1.041-1.041H23.938A1.044,1.044,0,0,1,24.979,21.51Zm-1.041,6.245H9.367a1.044,1.044,0,0,0-1.041,1.041v2.428a1.044,1.044,0,0,0,1.041,1.041H23.938a1.044,1.044,0,0,0,1.041-1.041V28.795A1.044,1.044,0,0,0,23.938,27.754ZM33.305,11.44v28.8a4.164,4.164,0,0,1-4.163,4.163H4.163A4.164,4.164,0,0,1,0,40.244V4.163A4.164,4.164,0,0,1,4.163,0h17.7a4.163,4.163,0,0,1,2.94,1.223L32.082,8.5A4.148,4.148,0,0,1,33.305,11.44ZM22.2,4.5v6.6h6.6L22.2,4.5Zm6.939,35.742V15.265h-9.02a2.077,2.077,0,0,1-2.082-2.082V4.163H4.163v36.08Z" transform="translate(251 2801.797)" fill="#163828"/>
  </g>
</svg>
