<svg xmlns="http://www.w3.org/2000/svg" xmlns:xlink="http://www.w3.org/1999/xlink" width="125" height="125" viewBox="0 0 125 125">
  <defs>
    <filter id="Rectangle_24" x="0" y="0" width="125" height="125" filterUnits="userSpaceOnUse">
      <feOffset dy="15" input="SourceAlpha"/>
      <feGaussianBlur stdDeviation="7.5" result="blur"/>
      <feFlood flood-color="#aace50" flood-opacity="0.302"/>
      <feComposite operator="in" in2="blur"/>
      <feComposite in="SourceGraphic"/>
    </filter>
  </defs>
  <g id="Group_678" data-name="Group 678" transform="translate(-205.5 -2535.5)">
    <g transform="matrix(1, 0, 0, 1, 205.5, 2535.5)" filter="url(#Rectangle_24)">
      <rect id="Rectangle_24-2" data-name="Rectangle 24" width="80" height="80" rx="20" transform="translate(22.5 7.5)" fill="#aace50"/>
    </g>
    <g id="checkmark-circle-outline" transform="translate(245.5 2560.5)">
      <g id="Path_1199" data-name="Path 1199" transform="translate(0 0)" fill="none" stroke-linecap="round">
        <path d="M41.112,22.806A18.306,18.306,0,1,0,22.806,41.112,18.311,18.311,0,0,0,41.112,22.806Z" stroke="none"/>
        <path d="M 22.8060302734375 4.5 C 12.69974136352539 4.5 4.5 12.69974136352539 4.5 22.8060302734375 C 4.5 32.91231155395508 12.69974136352539 41.112060546875 22.8060302734375 41.112060546875 C 32.91231155395508 41.112060546875 41.112060546875 32.91231155395508 41.112060546875 22.8060302734375 C 41.112060546875 12.69974136352539 32.91231155395508 4.5 22.8060302734375 4.5 M 22.8060302734375 -0.5 C 25.94935989379883 -0.5 29.00173950195312 0.1171798706054688 31.87837028503418 1.334381103515625 C 34.65377807617188 2.508758544921875 37.14553833007812 4.188732147216797 39.28443145751953 6.327621459960938 C 41.42333221435547 8.466510772705078 43.10330200195312 10.95827102661133 44.27767944335938 13.73369026184082 C 45.49488067626953 16.61032104492188 46.112060546875 19.66269111633301 46.112060546875 22.8060302734375 C 46.112060546875 25.94935989379883 45.49488067626953 29.00173950195312 44.27767944335938 31.87837028503418 C 43.10330200195312 34.65377807617188 41.42333221435547 37.14553833007812 39.28443145751953 39.28443145751953 C 37.14553833007812 41.42333221435547 34.65377807617188 43.10330200195312 31.87837028503418 44.27767944335938 C 29.00173950195312 45.49488067626953 25.94935989379883 46.112060546875 22.8060302734375 46.112060546875 C 19.66269111633301 46.112060546875 16.61032104492188 45.49488067626953 13.73369026184082 44.27767944335938 C 10.95827102661133 43.10330200195312 8.466510772705078 41.42333221435547 6.327621459960938 39.28443145751953 C 4.188732147216797 37.14553833007812 2.508758544921875 34.65377807617188 1.334381103515625 31.87837028503418 C 0.1171798706054688 29.00173950195312 -0.5 25.94935989379883 -0.5 22.8060302734375 C -0.5 19.66269111633301 0.1171798706054688 16.61032104492188 1.334381103515625 13.73369026184082 C 2.508758544921875 10.95827865600586 4.188732147216797 8.466510772705078 6.327621459960938 6.327621459960938 C 8.466510772705078 4.188732147216797 10.95827865600586 2.508758544921875 13.73369026184082 1.334381103515625 C 16.61032104492188 0.1171798706054688 19.66269111633301 -0.5 22.8060302734375 -0.5 Z" stroke="none" fill="#163828"/>
      </g>
      <path id="Path_1200" data-name="Path 1200" d="M29.556,12.375,16.742,27.63l-5.492-6.1" transform="translate(2.403 2.804)" fill="none" stroke="#163828" stroke-linecap="round" stroke-linejoin="round" stroke-width="5"/>
    </g>
  </g>
</svg>
